<?xml version="1.0" encoding="UTF-8"?>
<svg width="197px" height="29px" viewBox="0 0 197 29" version="1.1" xmlns="http://www.w3.org/2000/svg" xmlns:xlink="http://www.w3.org/1999/xlink">
    <!-- Generator: Sketch 51.3 (57544) - http://www.bohemiancoding.com/sketch -->
    <title>Group 6</title>
    <desc>Created with Sketch.</desc>
    <defs></defs>
    <g id="Page-1" stroke="none" stroke-width="1" fill="none" fill-rule="evenodd">
        <g id="Modules-3" transform="translate(-623.000000, -23.000000)" fill="#FFFFFF">
            <g id="Group-6" transform="translate(623.000000, 23.000000)">
                <g id="presthubot_logo">
                    <path d="M1.40218949,21.054384 C1.34531883,22.3843154 1.87680103,23.4445113 2.78362961,24.3474482 C3.93241702,25.4920016 5.35004756,26.1679025 6.88348745,26.5803166 C10.9450868,27.6696731 15.0573528,27.6905021 19.182027,27.0260571 C21.1507859,26.7104978 23.0347559,26.1231201 24.6405767,24.8598415 C25.9279217,23.8475523 26.6786144,22.589481 26.6134717,20.8658815 C26.5493629,19.1360334 26.6000295,17.4020195 26.6000295,15.6700885 C26.5989955,11.561569 24.4803048,8.23309545 20.6565282,6.79797763 C16.188562,5.12124345 11.6347729,5.13686519 7.17714688,6.86567186 C4.24262064,8.00501795 2.32763029,10.2274718 1.67206664,13.3330751 C1.3432508,14.891084 1.51799884,16.5428234 1.41046159,18.148739 C1.41046159,19.1172873 1.44458398,20.0868771 1.40218949,21.054384 Z M1.41046159,9.96398502 C3.02662245,7.4770029 5.08534047,5.98252243 7.6072959,5.13478229 C10.4756454,4.16935833 13.4349879,4.01834811 16.4098406,4.32453435 C17.731308,4.46096427 19.0579455,4.74007282 20.3277123,5.13165794 C22.8837902,5.92107689 25.0345353,7.48360784 26.5969275,9.91539312 C26.5969275,9.57091158 26.5969275,9.3089131 26.5969275,9.10374749 C26.6010635,6.4334702 26.6010635,3.76215145 26.5979615,1.09083271 C26.5969275,0.574273612 26.5710772,0.0160565184 27.2783414,0.000434771364 C27.9794016,-0.0151869757 28.0000819,0.519076773 27.9990479,1.05229907 C27.9949118,7.94982111 28.009388,14.8473431 27.9876737,21.7448652 C27.9814697,23.4205579 27.0601649,24.6755049 25.8627789,25.7242449 C24.0946183,27.2749636 21.9521453,28.0154344 19.6897269,28.3976465 C15.072863,29.1735266 10.4715093,29.1818582 5.95080857,27.7946471 C4.08751883,27.2239326 2.40724922,26.2960008 1.17780887,24.7046655 C0.405401858,23.7059152 -0.00613494433,22.6019784 6.91280712e-05,21.2970418 C0.0290214659,14.664048 0.0135112849,8.03001274 0.0135112849,1.39701896 C0.0135112849,1.28037658 0.0176473332,1.1616513 0.0135112849,1.04500892 C-0.00716895639,0.508662275 0.0393615866,-0.0172698753 0.739387755,0.000434771364 C1.37633919,0.0160565184 1.41563165,0.507620825 1.41356362,1.01480688 C1.40632554,3.12686708 1.41046159,5.23996872 1.41046159,7.35411182 L1.41046159,9.96398502 Z" id="Fill-4"></path>
                    <path d="M8.62318598,16.1617639 C7.5023169,16.1586396 6.5003592,17.1834262 6.52414148,18.3092334 C6.54688975,19.4058801 7.52609917,20.3754698 8.61284586,20.3806771 C9.69338847,20.3848429 10.68087,19.4152531 10.7129244,18.3196479 C10.7449787,17.196965 9.74612308,16.1659297 8.62318598,16.1617639 M21.2081468,18.2571609 C21.1988407,17.1605143 20.2320394,16.1794686 19.1442588,16.1607225 C18.0264917,16.1409349 17.0121259,17.1542656 17.0183299,18.2831972 C17.024534,19.4110873 18.0585461,20.4192107 19.169075,20.3806771 C20.2578897,20.341102 21.2174529,19.3433931 21.2081468,18.2571609 M13.9328379,12.9863835 C15.6813523,12.9863835 17.4309008,12.9790933 19.1794152,12.9884664 C22.079819,13.0030467 24.3598156,15.3338113 24.3598156,18.2706998 C24.3598156,21.2065468 22.077751,23.5425187 19.1773471,23.5518917 C15.6203456,23.5623062 12.0643781,23.5643891 8.50737663,23.5508503 C5.66074141,23.5393943 3.37764276,21.1961323 3.37350672,18.3133992 C3.36730264,15.3588061 5.62765302,13.0092954 8.51047866,12.9895078 C10.3179318,12.975969 12.1253848,12.9863835 13.9328379,12.9863835" id="Fill-8"></path>
                    <ellipse id="Oval-2" cx="8.68674699" cy="18.2936047" rx="1" ry="1"></ellipse>
                    <ellipse id="Oval-2-Copy" cx="19.1445783" cy="18.2936047" rx="1" ry="1"></ellipse>
                </g>
                <path d="M48.184,11.18 C49.2760055,11.18 50.2269959,11.3599982 51.037,11.72 C51.847004,12.0800018 52.4679978,12.5959966 52.9,13.268 C53.3320022,13.9400034 53.548,14.7379954 53.548,15.662 C53.548,16.5740046 53.3320022,17.3689966 52.9,18.047 C52.4679978,18.7250034 51.847004,19.2439982 51.037,19.604 C50.2269959,19.9640018 49.2760055,20.144 48.184,20.144 L45.34,20.144 L45.34,23.78 L43,23.78 L43,11.18 L48.184,11.18 Z M48.076,18.164 C49.0960051,18.164 49.8699974,17.9480022 50.398,17.516 C50.9260026,17.0839978 51.19,16.466004 51.19,15.662 C51.19,14.857996 50.9260026,14.2400022 50.398,13.808 C49.8699974,13.3759978 49.0960051,13.16 48.076,13.16 L45.34,13.16 L45.34,18.164 L48.076,18.164 Z M67.132,23.78 L64.558,20.09 C64.4499995,20.1020001 64.2880011,20.108 64.072,20.108 L61.228,20.108 L61.228,23.78 L58.888,23.78 L58.888,11.18 L64.072,11.18 C65.1640055,11.18 66.1149959,11.3599982 66.925,11.72 C67.735004,12.0800018 68.3559978,12.5959966 68.788,13.268 C69.2200022,13.9400034 69.436,14.7379954 69.436,15.662 C69.436,16.6100047 69.2050023,17.4259966 68.743,18.11 C68.2809977,18.7940034 67.6180043,19.3039983 66.754,19.64 L69.652,23.78 L67.132,23.78 Z M67.078,15.662 C67.078,14.857996 66.8140026,14.2400022 66.286,13.808 C65.7579974,13.3759978 64.9840051,13.16 63.964,13.16 L61.228,13.16 L61.228,18.182 L63.964,18.182 C64.9840051,18.182 65.7579974,17.9630022 66.286,17.525 C66.8140026,17.0869978 67.078,16.466004 67.078,15.662 Z M84.496,21.818 L84.496,23.78 L75.046,23.78 L75.046,11.18 L84.244,11.18 L84.244,13.142 L77.386,13.142 L77.386,16.418 L83.47,16.418 L83.47,18.344 L77.386,18.344 L77.386,21.818 L84.496,21.818 Z M94.012,23.96 C93.0399951,23.96 92.1010045,23.8220014 91.195,23.546 C90.2889955,23.2699986 89.5720026,22.9040023 89.044,22.448 L89.854,20.63 C90.3700026,21.038002 91.0029962,21.3709987 91.753,21.629 C92.5030038,21.8870013 93.2559962,22.016 94.012,22.016 C94.9480047,22.016 95.6469977,21.8660015 96.109,21.566 C96.5710023,21.2659985 96.802,20.8700025 96.802,20.378 C96.802,20.0179982 96.6730013,19.7210012 96.415,19.487 C96.1569987,19.2529988 95.830002,19.0700007 95.434,18.938 C95.037998,18.8059993 94.4980034,18.6560008 93.814,18.488 C92.8539952,18.2599989 92.077003,18.0320011 91.483,17.804 C90.888997,17.5759989 90.3790021,17.2190024 89.953,16.733 C89.5269979,16.2469976 89.314,15.5900041 89.314,14.762 C89.314,14.0659965 89.5029981,13.4330029 89.881,12.863 C90.2590019,12.2929972 90.8289962,11.8400017 91.591,11.504 C92.3530038,11.1679983 93.2859945,11 94.39,11 C95.1580038,11 95.9139963,11.095999 96.658,11.288 C97.4020037,11.480001 98.0439973,11.7559982 98.584,12.116 L97.846,13.934 C97.2939972,13.6099984 96.718003,13.3640008 96.118,13.196 C95.517997,13.0279992 94.9360028,12.944 94.372,12.944 C93.4479954,12.944 92.7610022,13.0999984 92.311,13.412 C91.8609978,13.7240016 91.636,14.1379974 91.636,14.654 C91.636,15.0140018 91.7649987,15.3079989 92.023,15.536 C92.2810013,15.7640011 92.607998,15.9439993 93.004,16.076 C93.400002,16.2080007 93.9399966,16.3579992 94.624,16.526 C95.5600047,16.7420011 96.327997,16.9669988 96.928,17.201 C97.528003,17.4350012 98.0409979,17.7919976 98.467,18.272 C98.8930021,18.7520024 99.106,19.3999959 99.106,20.216 C99.106,20.9120035 98.9170019,21.5419972 98.539,22.106 C98.1609981,22.6700028 97.5880038,23.1199983 96.82,23.456 C96.0519962,23.7920017 95.1160055,23.96 94.012,23.96 Z M106.804,13.16 L102.628,13.16 L102.628,11.18 L113.32,11.18 L113.32,13.16 L109.144,13.16 L109.144,23.78 L106.804,23.78 L106.804,13.16 Z M129.28,11.18 L129.28,23.78 L126.94,23.78 L126.94,18.38 L120.424,18.38 L120.424,23.78 L118.084,23.78 L118.084,11.18 L120.424,11.18 L120.424,16.382 L126.94,16.382 L126.94,11.18 L129.28,11.18 Z M141.082,23.96 C139.341991,23.96 137.986005,23.4710049 137.014,22.493 C136.041995,21.5149951 135.556,20.1140091 135.556,18.29 L135.556,11.18 L137.896,11.18 L137.896,18.2 C137.896,20.6720124 138.963989,21.908 141.1,21.908 C143.224011,21.908 144.286,20.6720124 144.286,18.2 L144.286,11.18 L146.59,11.18 L146.59,18.29 C146.59,20.1140091 146.107005,21.5149951 145.141,22.493 C144.174995,23.4710049 142.822009,23.96 141.082,23.96 Z M161.794,17.228 C162.490003,17.4560011 163.041998,17.8369973 163.45,18.371 C163.858002,18.9050027 164.062,19.567996 164.062,20.36 C164.062,21.4520055 163.642004,22.294997 162.802,22.889 C161.961996,23.483003 160.738008,23.78 159.13,23.78 L152.866,23.78 L152.866,11.18 L158.77,11.18 C160.258007,11.18 161.403996,11.4709971 162.208,12.053 C163.012004,12.6350029 163.414,13.4359949 163.414,14.456 C163.414,15.0800031 163.270001,15.6319976 162.982,16.112 C162.693999,16.5920024 162.298003,16.9639987 161.794,17.228 Z M155.206,13.016 L155.206,16.49 L158.518,16.49 C159.334004,16.49 159.960998,16.3430015 160.399,16.049 C160.837002,15.7549985 161.056,15.3260028 161.056,14.762 C161.056,14.1859971 160.837002,13.7510015 160.399,13.457 C159.960998,13.1629985 159.334004,13.016 158.518,13.016 L155.206,13.016 Z M158.986,21.944 C160.798009,21.944 161.704,21.3380061 161.704,20.126 C161.704,18.9139939 160.798009,18.308 158.986,18.308 L155.206,18.308 L155.206,21.944 L158.986,21.944 Z M175.45,23.96 C174.165994,23.96 173.008005,23.6810028 171.976,23.123 C170.943995,22.5649972 170.134003,21.7910049 169.546,20.801 C168.957997,19.810995 168.664,18.7040061 168.664,17.48 C168.664,16.2559939 168.957997,15.149005 169.546,14.159 C170.134003,13.168995 170.943995,12.3950028 171.976,11.837 C173.008005,11.2789972 174.165994,11 175.45,11 C176.734006,11 177.891995,11.2789972 178.924,11.837 C179.956005,12.3950028 180.765997,13.1659951 181.354,14.15 C181.942003,15.1340049 182.236,16.2439938 182.236,17.48 C182.236,18.7160062 181.942003,19.8259951 181.354,20.81 C180.765997,21.7940049 179.956005,22.5649972 178.924,23.123 C177.891995,23.6810028 176.734006,23.96 175.45,23.96 Z M175.45,21.908 C176.290004,21.908 177.045997,21.7190019 177.718,21.341 C178.390003,20.9629981 178.917998,20.4350034 179.302,19.757 C179.686002,19.0789966 179.878,18.3200042 179.878,17.48 C179.878,16.6399958 179.686002,15.8810034 179.302,15.203 C178.917998,14.5249966 178.390003,13.9970019 177.718,13.619 C177.045997,13.2409981 176.290004,13.052 175.45,13.052 C174.609996,13.052 173.854003,13.2409981 173.182,13.619 C172.509997,13.9970019 171.982002,14.5249966 171.598,15.203 C171.213998,15.8810034 171.022,16.6399958 171.022,17.48 C171.022,18.3200042 171.213998,19.0789966 171.598,19.757 C171.982002,20.4350034 172.509997,20.9629981 173.182,21.341 C173.854003,21.7190019 174.609996,21.908 175.45,21.908 Z M190.276,13.16 L186.1,13.16 L186.1,11.18 L196.792,11.18 L196.792,13.16 L192.616,13.16 L192.616,23.78 L190.276,23.78 L190.276,13.16 Z" id="PRESTHUBOT-Copy"></path>
            </g>
        </g>
    </g>
</svg>