<?xml version="1.0" encoding="UTF-8"?>
<svg width="28px" height="29px" viewBox="0 0 28 29" version="1.1" xmlns="http://www.w3.org/2000/svg" xmlns:xlink="http://www.w3.org/1999/xlink">
    <!-- Generator: Sketch 51.3 (57544) - http://www.bohemiancoding.com/sketch -->
    <title>presthubot_logo</title>
    <desc>Created with Sketch.</desc>
    <defs></defs>
    <g id="Page-1" stroke="none" stroke-width="1" fill="none" fill-rule="evenodd">
        <g id="Modules-3" transform="translate(-623.000000, -23.000000)" fill="#FFFFFF">
            <g id="presthubot_logo" transform="translate(623.000000, 23.000000)">
                <path d="M1.40218949,21.054384 C1.34531883,22.3843154 1.87680103,23.4445113 2.78362961,24.3474482 C3.93241702,25.4920016 5.35004756,26.1679025 6.88348745,26.5803166 C10.9450868,27.6696731 15.0573528,27.6905021 19.182027,27.0260571 C21.1507859,26.7104978 23.0347559,26.1231201 24.6405767,24.8598415 C25.9279217,23.8475523 26.6786144,22.589481 26.6134717,20.8658815 C26.5493629,19.1360334 26.6000295,17.4020195 26.6000295,15.6700885 C26.5989955,11.561569 24.4803048,8.23309545 20.6565282,6.79797763 C16.188562,5.12124345 11.6347729,5.13686519 7.17714688,6.86567186 C4.24262064,8.00501795 2.32763029,10.2274718 1.67206664,13.3330751 C1.3432508,14.891084 1.51799884,16.5428234 1.41046159,18.148739 C1.41046159,19.1172873 1.44458398,20.0868771 1.40218949,21.054384 Z M1.41046159,9.96398502 C3.02662245,7.4770029 5.08534047,5.98252243 7.6072959,5.13478229 C10.4756454,4.16935833 13.4349879,4.01834811 16.4098406,4.32453435 C17.731308,4.46096427 19.0579455,4.74007282 20.3277123,5.13165794 C22.8837902,5.92107689 25.0345353,7.48360784 26.5969275,9.91539312 C26.5969275,9.57091158 26.5969275,9.3089131 26.5969275,9.10374749 C26.6010635,6.4334702 26.6010635,3.76215145 26.5979615,1.09083271 C26.5969275,0.574273612 26.5710772,0.0160565184 27.2783414,0.000434771364 C27.9794016,-0.0151869757 28.0000819,0.519076773 27.9990479,1.05229907 C27.9949118,7.94982111 28.009388,14.8473431 27.9876737,21.7448652 C27.9814697,23.4205579 27.0601649,24.6755049 25.8627789,25.7242449 C24.0946183,27.2749636 21.9521453,28.0154344 19.6897269,28.3976465 C15.072863,29.1735266 10.4715093,29.1818582 5.95080857,27.7946471 C4.08751883,27.2239326 2.40724922,26.2960008 1.17780887,24.7046655 C0.405401858,23.7059152 -0.00613494433,22.6019784 6.91280712e-05,21.2970418 C0.0290214659,14.664048 0.0135112849,8.03001274 0.0135112849,1.39701896 C0.0135112849,1.28037658 0.0176473332,1.1616513 0.0135112849,1.04500892 C-0.00716895639,0.508662275 0.0393615866,-0.0172698753 0.739387755,0.000434771364 C1.37633919,0.0160565184 1.41563165,0.507620825 1.41356362,1.01480688 C1.40632554,3.12686708 1.41046159,5.23996872 1.41046159,7.35411182 L1.41046159,9.96398502 Z" id="Fill-4"></path>
                <path d="M8.62318598,16.1617639 C7.5023169,16.1586396 6.5003592,17.1834262 6.52414148,18.3092334 C6.54688975,19.4058801 7.52609917,20.3754698 8.61284586,20.3806771 C9.69338847,20.3848429 10.68087,19.4152531 10.7129244,18.3196479 C10.7449787,17.196965 9.74612308,16.1659297 8.62318598,16.1617639 M21.2081468,18.2571609 C21.1988407,17.1605143 20.2320394,16.1794686 19.1442588,16.1607225 C18.0264917,16.1409349 17.0121259,17.1542656 17.0183299,18.2831972 C17.024534,19.4110873 18.0585461,20.4192107 19.169075,20.3806771 C20.2578897,20.341102 21.2174529,19.3433931 21.2081468,18.2571609 M13.9328379,12.9863835 C15.6813523,12.9863835 17.4309008,12.9790933 19.1794152,12.9884664 C22.079819,13.0030467 24.3598156,15.3338113 24.3598156,18.2706998 C24.3598156,21.2065468 22.077751,23.5425187 19.1773471,23.5518917 C15.6203456,23.5623062 12.0643781,23.5643891 8.50737663,23.5508503 C5.66074141,23.5393943 3.37764276,21.1961323 3.37350672,18.3133992 C3.36730264,15.3588061 5.62765302,13.0092954 8.51047866,12.9895078 C10.3179318,12.975969 12.1253848,12.9863835 13.9328379,12.9863835" id="Fill-8"></path>
                <ellipse id="Oval-2" cx="8.68674699" cy="18.2936047" rx="1" ry="1"></ellipse>
                <ellipse id="Oval-2-Copy" cx="19.1445783" cy="18.2936047" rx="1" ry="1"></ellipse>
            </g>
        </g>
    </g>
</svg>